<mxfile host="app.diagrams.net" modified="2021-12-13T11:11:39.989Z" agent="5.0 (Windows NT 10.0; Win64; x64) AppleWebKit/537.36 (KHTML, like Gecko) Chrome/96.0.4664.93 Safari/537.36 Edg/96.0.1054.53" etag="ysa2CxlhFhwHin1-Q3KV" version="15.9.4" type="github">
  <diagram id="xP1MEdMk4Tscmr13mTCs" name="第 1 页">
    <mxGraphModel dx="677" dy="363" grid="1" gridSize="10" guides="1" tooltips="1" connect="1" arrows="1" fold="1" page="1" pageScale="1" pageWidth="827" pageHeight="1169" math="0" shadow="0">
      <root>
        <mxCell id="0" />
        <mxCell id="1" parent="0" />
        <mxCell id="HYw3bSDnfM3Yj51mWmE8-3" value="" style="edgeStyle=orthogonalEdgeStyle;rounded=0;orthogonalLoop=1;jettySize=auto;html=1;" edge="1" parent="1" source="HYw3bSDnfM3Yj51mWmE8-1" target="HYw3bSDnfM3Yj51mWmE8-2">
          <mxGeometry relative="1" as="geometry" />
        </mxCell>
        <mxCell id="HYw3bSDnfM3Yj51mWmE8-1" value="A" style="rounded=1;whiteSpace=wrap;html=1;" vertex="1" parent="1">
          <mxGeometry x="340" y="120" width="120" height="60" as="geometry" />
        </mxCell>
        <mxCell id="HYw3bSDnfM3Yj51mWmE8-2" value="B" style="rounded=1;whiteSpace=wrap;html=1;" vertex="1" parent="1">
          <mxGeometry x="340" y="260" width="120" height="60" as="geometry" />
        </mxCell>
      </root>
    </mxGraphModel>
  </diagram>
</mxfile>
